<svg width="480" height="502" viewBox="0 0 480 502" fill="none" xmlns="http://www.w3.org/2000/svg">
<path fill-rule="evenodd" clip-rule="evenodd" d="M301.585 356.83C400.121 356.83 480 276.951 480 178.415C480 79.8791 400.121 0 301.585 0C203.049 0 123.17 79.8791 123.17 178.415C123.17 276.951 203.049 356.83 301.585 356.83ZM301.585 325.726C382.943 325.726 448.896 259.773 448.896 178.415C448.896 97.0572 382.943 31.1037 301.585 31.1037C220.227 31.1037 154.274 97.0572 154.274 178.415C154.274 259.773 220.227 325.726 301.585 325.726Z" fill="#330570"/>
<path d="M164.356 304.267C164.356 304.267 149.741 313.906 152.301 327.277C153.261 332.563 160.302 335.568 165.317 335.983C166.703 336.087 166.597 334.325 168.197 333.495C168.197 333.495 179.079 328.417 180.999 311.419C180.999 311.419 181.213 301.883 174.598 301.054C172.144 300.743 168.837 301.469 164.356 304.267Z" fill="black"/>
<path d="M80.9836 354.03L77 359.503L80.0401 360.24L82.0319 363.819C83.185 365.924 85.9106 366.661 88.0072 365.293L294 235.513L282.259 230.987L80.9836 354.03Z" fill="black"/>
<path d="M10 198.987V200.974V310.759L81 354.987V244.261L10 198.987Z" fill="url(#paint0_linear)"/>
<path d="M10 310.956L81 265.987V354.987L10 310.956Z" fill="url(#paint1_linear)"/>
<path d="M10 198.497L0 177.987V288.529L10 307.987V198.497Z" fill="#E2E2E2"/>
<path d="M234 94.9873H261.156C261.156 94.9873 307.184 109.768 327 134.087L287.053 157.987L234 121.718V94.9873Z" fill="url(#paint2_linear)"/>
<path d="M287 157.919V223.987L221 183.74L233.737 94.9873L247 147.465L260.474 140.461L271 148.406L287 157.919Z" fill="#AFAEAE"/>
<path d="M261 207.616L286.59 223.757L319.92 201.987L329 207.616L327.143 225.669L290.305 249.987L266.469 234.801L261 207.616Z" fill="black"/>
<path d="M326.617 133.987L334 167.815V220.494L326.617 226.987L324.642 205.099L320.586 202.585L287 224.055V157.866L326.617 133.987Z" fill="url(#paint3_linear)"/>
<path d="M131.356 326.306C131.356 326.306 116.741 335.958 119.301 349.347C119.834 351.942 121.328 354.122 123.355 355.575C125.489 357.028 133.17 360.453 135.837 359.934C137.224 359.623 133.597 356.509 135.197 355.575C135.197 355.575 146.079 350.489 147.999 333.467C147.999 333.467 148.213 323.918 141.598 323.088C139.251 322.673 135.944 323.503 131.356 326.306Z" fill="black"/>
<path d="M150.833 347.446C156.568 337.876 157.03 327.617 151.866 324.531C146.702 321.445 137.867 326.701 132.132 336.271C126.397 345.841 125.934 356.1 131.099 359.186C136.263 362.272 145.098 357.016 150.833 347.446Z" fill="#383838"/>
<path d="M183.565 324.185C189.3 314.615 189.763 304.355 184.599 301.269C179.435 298.183 170.599 303.44 164.864 313.01C159.13 322.579 158.667 332.839 163.831 335.925C168.995 339.011 177.83 333.755 183.565 324.185Z" fill="#383838"/>
<path d="M291.899 222.887C291.899 222.887 277.963 233.492 281.608 246.34C283.001 251.438 290.291 253.885 295.329 253.987C296.723 253.987 296.509 252.254 298.009 251.336C298.009 251.336 308.515 245.524 309.158 228.801C309.158 228.801 315.161 225.844 312.16 222.989C311.195 222.071 303.584 219.114 301.868 219.012C299.51 218.808 296.294 219.828 291.899 222.887Z" fill="black"/>
<path d="M310.951 243.396C316.151 234.719 316.583 225.424 311.915 222.634C307.248 219.845 299.248 224.618 294.048 233.296C288.848 241.973 288.417 251.269 293.084 254.058C297.752 256.847 305.751 252.074 310.951 243.396Z" fill="#383838"/>
<path d="M77 359.987L81 354.987L77 359.987Z" fill="black"/>
<path d="M4.97776 313.769L9.18366 310.547L80.8558 354.976L76.747 360.392L4.97294 315.127" fill="black"/>
<path d="M145.618 344.33C148.174 340.065 148.394 335.502 146.11 334.137C143.825 332.772 139.902 335.122 137.347 339.387C134.791 343.651 134.571 348.214 136.856 349.579C139.14 350.944 143.063 348.594 145.618 344.33Z" fill="black"/>
<path d="M178.351 321.069C180.906 316.804 181.126 312.241 178.842 310.876C176.558 309.511 172.635 311.861 170.079 316.126C167.524 320.39 167.304 324.953 169.588 326.318C171.872 327.683 175.795 325.333 178.351 321.069Z" fill="black"/>
<path d="M306.636 240.818C309.191 236.553 309.411 231.99 307.127 230.625C304.843 229.26 300.92 231.61 298.364 235.875C295.809 240.139 295.589 244.702 297.873 246.067C300.157 247.432 304.08 245.082 306.636 240.818Z" fill="black"/>
<path d="M305 154.253L327.486 137.987L334 167.967L305 169.987V154.253Z" fill="url(#paint4_linear)"/>
<path d="M307.027 169.881L307.133 157.017L329 143.409L327.827 137.987L305 154.253V169.987L307.027 169.881Z" fill="black"/>
<path d="M301 204.946V209.33L302.985 209.987L308 207.138V204.946L306.015 201.987L301 204.946Z" fill="black"/>
<path d="M312 236.987L334.792 220.596L335 211.98C335 211.98 334.063 209.458 331.357 210.088L320.43 217.654L313.249 236.777" fill="#201600"/>
<path d="M79.9141 258.466L96.3639 248.422L114.7 257.001L98.5643 269.556L79.9141 258.466Z" fill="#E2C188"/>
<path d="M114.7 257.001L98.5645 269.556V284.518L113.652 270.707L114.7 257.001Z" fill="#CEA15F"/>
<path d="M79.9141 258.466V272.695L98.5642 284.518V269.138L79.9141 258.466Z" fill="#E2C188"/>
<path d="M101.917 269.661L118.367 259.617L136.703 268.196L120.567 280.752L101.917 269.661Z" fill="#E2C188"/>
<path d="M136.703 268.196L120.567 280.752V295.713L135.655 281.902L136.703 268.196Z" fill="#CEA15F"/>
<path d="M101.917 269.661V283.891L120.567 295.714V280.333L101.917 269.661Z" fill="#E2C188"/>
<path d="M79.9141 243.504L96.3639 233.46L114.7 242.144L98.5643 254.699L79.9141 243.504Z" fill="#E2C188"/>
<path d="M114.7 242.144L98.5645 254.699V269.556L113.652 255.85L114.7 242.144Z" fill="#CEA15F"/>
<path d="M79.9141 243.504V257.838L98.5642 269.556V254.176L79.9141 243.504Z" fill="#E2C188"/>
<path d="M101.917 255.85L118.367 245.806L136.703 254.49L120.567 267.045L101.917 255.85Z" fill="#E2C188"/>
<path d="M136.703 254.49L120.567 267.045V281.903L135.655 268.196L136.703 254.49Z" fill="#CEA15F"/>
<path d="M101.917 255.85V270.184L120.567 281.903V266.522L101.917 255.85Z" fill="#E2C188"/>
<path d="M63.7783 272.277L80.2282 262.128L98.5641 270.812L82.4285 283.367L63.7783 272.277Z" fill="#E2C188"/>
<path d="M98.5643 270.812L82.4287 283.367V298.329L97.5165 284.518L98.5643 270.812Z" fill="#CEA15F"/>
<path d="M63.7783 272.277V286.506L82.4285 298.329V282.949L63.7783 272.277Z" fill="#E2C188"/>
<path d="M85.7812 283.472L102.231 273.323L120.567 282.007L104.431 294.563L85.7812 283.472Z" fill="#E2C188"/>
<path d="M120.567 282.007L104.432 294.563V309.524L119.519 295.713L120.567 282.007Z" fill="#CEA15F"/>
<path d="M85.7812 283.472V297.701L104.431 309.524V294.144L85.7812 283.472Z" fill="#E2C188"/>
<path d="M63.7783 257.315L80.2282 247.271L98.5641 255.955L82.4285 268.51L63.7783 257.315Z" fill="#E2C188"/>
<path d="M98.5643 255.955L82.4287 268.51V283.367L97.5165 269.661L98.5643 255.955Z" fill="#CEA15F"/>
<path d="M63.7783 257.315V271.649L82.4285 283.367V267.987L63.7783 257.315Z" fill="#E2C188"/>
<path d="M85.7812 269.661L102.231 259.617L120.567 268.301L104.431 280.856L85.7812 269.661Z" fill="#E2C188"/>
<path d="M120.567 268.301L104.432 280.856V295.713L119.519 282.007L120.567 268.301Z" fill="#CEA15F"/>
<path d="M85.7812 269.661V283.995L104.431 295.714V280.333L85.7812 269.661Z" fill="#E2C188"/>
<path d="M47.6426 283.367L64.0925 273.323L82.4283 282.007L66.2928 294.563L47.6426 283.367Z" fill="#E2C188"/>
<path d="M82.4285 282.007L66.293 294.563V309.524L81.3808 295.713L82.4285 282.007Z" fill="#CEA15F"/>
<path d="M47.6426 283.367V297.701L66.2928 309.524V294.039L47.6426 283.367Z" fill="#E2C188"/>
<path d="M69.6455 294.563L86.0954 284.518L104.431 293.202L88.2957 305.758L69.6455 294.563Z" fill="#E2C188"/>
<path d="M104.431 293.202L88.2959 305.758V320.72L103.384 306.909L104.431 293.202Z" fill="#CEA15F"/>
<path d="M69.6455 294.562V308.897L88.2957 320.72V305.235L69.6455 294.562Z" fill="#E2C188"/>
<path d="M47.6426 268.51L64.0925 258.466L82.4283 267.045L66.2928 279.705L47.6426 268.51Z" fill="#E2C188"/>
<path d="M82.4285 267.045L66.293 279.705V294.563L81.3808 280.856L82.4285 267.045Z" fill="#CEA15F"/>
<path d="M47.6426 268.51V282.844L66.2928 294.563V279.182L47.6426 268.51Z" fill="#E2C188"/>
<path d="M69.6455 280.856L86.0954 270.812L104.431 279.496L88.2957 292.052L69.6455 280.856Z" fill="#E2C188"/>
<path d="M104.431 279.496L88.2959 292.052V306.909L103.384 293.202L104.431 279.496Z" fill="#CEA15F"/>
<path d="M69.6455 280.856V295.19L88.2957 306.909V291.528L69.6455 280.856Z" fill="#E2C188"/>
<path d="M31.4023 297.178L47.957 287.134L66.2929 295.818L50.1573 308.373L31.4023 297.178Z" fill="#E2C188"/>
<path d="M66.2928 295.818L50.1572 308.373V323.231L65.245 309.524L66.2928 295.818Z" fill="#CEA15F"/>
<path d="M31.4023 297.178V311.512L50.1573 323.231V307.85L31.4023 297.178Z" fill="#E2C188"/>
<path d="M53.5098 308.373L69.9597 298.329L88.2955 307.013L72.16 319.569L53.5098 308.373Z" fill="#E2C188"/>
<path d="M88.2957 307.013L72.1602 319.569V334.426L87.2479 320.719L88.2957 307.013Z" fill="#CEA15F"/>
<path d="M53.5098 308.374V322.708L72.16 334.426V319.046L53.5098 308.374Z" fill="#E2C188"/>
<path d="M31.4023 282.321L47.957 272.277L66.2929 280.856L50.1573 293.516L31.4023 282.321Z" fill="#E2C188"/>
<path d="M66.2928 280.856L50.1572 293.516V308.374L65.245 294.667L66.2928 280.856Z" fill="#CEA15F"/>
<path d="M31.4023 282.321V296.55L50.1573 308.373V292.993L31.4023 282.321Z" fill="#E2C188"/>
<path d="M53.5098 294.667L69.9597 284.623L88.2955 293.202L72.16 305.862L53.5098 294.667Z" fill="#E2C188"/>
<path d="M88.2957 293.202L72.1602 305.862V320.72L87.2479 307.013L88.2957 293.202Z" fill="#CEA15F"/>
<path d="M53.5098 294.667V309.001L72.16 320.72V305.339L53.5098 294.667Z" fill="#E2C188"/>
<path d="M78.3428 225.09L94.8974 215.045L113.233 223.625L97.0978 236.285L78.3428 225.09Z" fill="#E2C188"/>
<path d="M113.233 223.625L97.0977 236.285V251.142L112.185 237.436L113.233 223.625Z" fill="#CEA15F"/>
<path d="M78.3428 225.09V239.319L97.0977 251.142V235.762L78.3428 225.09Z" fill="#E2C188"/>
<path d="M100.346 236.285L116.9 226.241L135.236 234.82L119.101 247.48L100.346 236.285Z" fill="#E2C188"/>
<path d="M135.236 234.82L119.101 247.48V262.337L134.188 248.631L135.236 234.82Z" fill="#CEA15F"/>
<path d="M100.346 236.285V250.514L119.101 262.337V246.957L100.346 236.285Z" fill="#E2C188"/>
<path d="M78.3428 210.128L94.8974 200.083L113.233 208.768L97.0978 221.323L78.3428 210.128Z" fill="#E2C188"/>
<path d="M113.233 208.768L97.0977 221.323V236.285L112.185 222.474L113.233 208.768Z" fill="#CEA15F"/>
<path d="M78.3428 210.128V224.462L97.0977 236.285V220.8L78.3428 210.128Z" fill="#E2C188"/>
<path d="M100.346 222.579L116.9 212.43L135.236 221.114L119.101 233.669L100.346 222.579Z" fill="#E2C188"/>
<path d="M135.236 221.114L119.101 233.669V248.631L134.188 234.82L135.236 221.114Z" fill="#CEA15F"/>
<path d="M100.346 222.579V236.808L119.101 248.631V233.251L100.346 222.579Z" fill="#E2C188"/>
<path d="M62.207 238.901L78.7617 228.856L97.0975 237.436L80.962 249.991L62.207 238.901Z" fill="#E2C188"/>
<path d="M97.0975 237.436L80.9619 249.991V264.953L96.0497 251.247L97.0975 237.436Z" fill="#CEA15F"/>
<path d="M62.207 238.901V253.13L80.962 264.953V249.573L62.207 238.901Z" fill="#E2C188"/>
<path d="M84.21 250.096L100.765 240.052L119.1 248.631L102.965 261.291L84.21 250.096Z" fill="#E2C188"/>
<path d="M119.1 248.631L102.965 261.291V276.148L118.053 262.442L119.1 248.631Z" fill="#CEA15F"/>
<path d="M84.21 250.096V264.325L102.965 276.148V260.768L84.21 250.096Z" fill="#E2C188"/>
<path d="M62.207 223.939L78.7617 213.895L97.0975 222.579L80.962 235.134L62.207 223.939Z" fill="#E2C188"/>
<path d="M97.0975 222.579L80.9619 235.134V249.991L96.0497 236.285L97.0975 222.579Z" fill="#CEA15F"/>
<path d="M62.207 223.939V238.273L80.962 249.991V234.611L62.207 223.939Z" fill="#E2C188"/>
<path d="M84.21 236.285L100.765 226.241L119.1 234.925L102.965 247.48L84.21 236.285Z" fill="#E2C188"/>
<path d="M119.1 234.925L102.965 247.48V262.442L118.053 248.631L119.1 234.925Z" fill="#CEA15F"/>
<path d="M84.21 236.285V250.619L102.965 262.442V246.957L84.21 236.285Z" fill="#E2C188"/>
<path d="M46.0713 250.096L62.6259 239.947L80.9618 248.631L64.8262 261.186L46.0713 250.096Z" fill="#E2C188"/>
<path d="M80.9617 248.631L64.8262 261.186V276.148L79.914 262.337L80.9617 248.631Z" fill="#CEA15F"/>
<path d="M46.0713 250.096V264.325L64.8263 276.148V260.768L46.0713 250.096Z" fill="#E2C188"/>
<path d="M68.0742 261.291L84.6289 251.142L102.965 259.826L86.8292 272.382L68.0742 261.291Z" fill="#E2C188"/>
<path d="M102.965 259.826L86.8291 272.382V287.343L101.917 273.532L102.965 259.826Z" fill="#CEA15F"/>
<path d="M68.0742 261.291V275.52L86.8292 287.343V271.963L68.0742 261.291Z" fill="#E2C188"/>
<path d="M46.0713 235.134L62.6259 225.09L80.9618 233.774L64.8262 246.329L46.0713 235.134Z" fill="#E2C188"/>
<path d="M80.9617 233.774L64.8262 246.329V261.186L79.914 247.48L80.9617 233.774Z" fill="#CEA15F"/>
<path d="M46.0713 235.134V249.468L64.8263 261.186V245.806L46.0713 235.134Z" fill="#E2C188"/>
<path d="M68.0742 247.48L84.6289 237.436L102.965 246.12L86.8292 258.675L68.0742 247.48Z" fill="#E2C188"/>
<path d="M102.965 246.12L86.8291 258.675V273.533L101.917 259.826L102.965 246.12Z" fill="#CEA15F"/>
<path d="M68.0742 247.48V261.814L86.8292 273.533V258.152L68.0742 247.48Z" fill="#E2C188"/>
<path d="M29.9355 263.802L46.4902 253.758L64.8261 262.442L48.6905 274.997L29.9355 263.802Z" fill="#E2C188"/>
<path d="M64.826 262.442L48.6904 274.997V289.959L63.7782 276.148L64.826 262.442Z" fill="#CEA15F"/>
<path d="M29.9355 263.802V278.136L48.6905 289.959V274.474L29.9355 263.802Z" fill="#E2C188"/>
<path d="M51.9385 275.102L68.4931 264.953L86.829 273.637L70.6934 286.193L51.9385 275.102Z" fill="#E2C188"/>
<path d="M86.8289 273.637L70.6934 286.193V301.154L85.7812 287.343L86.8289 273.637Z" fill="#CEA15F"/>
<path d="M51.9385 275.102V289.331L70.6934 301.154V285.669L51.9385 275.102Z" fill="#E2C188"/>
<path d="M29.9355 248.945L46.4902 238.901L64.8261 247.585L48.6905 260.14L29.9355 248.945Z" fill="#E2C188"/>
<path d="M64.826 247.585L48.6904 260.14V274.997L63.7782 261.291L64.826 247.585Z" fill="#CEA15F"/>
<path d="M29.9355 248.945V263.279L48.6905 274.997V259.617L29.9355 248.945Z" fill="#E2C188"/>
<path d="M51.9385 261.291L68.4931 251.247L86.829 259.931L70.6934 272.486L51.9385 261.291Z" fill="#E2C188"/>
<path d="M86.8289 259.931L70.6934 272.486V287.343L85.7812 273.637L86.8289 259.931Z" fill="#CEA15F"/>
<path d="M51.9385 261.291V275.625L70.6934 287.343V271.963L51.9385 261.291Z" fill="#E2C188"/>
<path d="M81 244.487V354.987L283 231.757V121.987L81 244.487Z" fill="url(#paint5_linear)"/>
<path d="M128 244.987H81V354.987H128V244.987Z" fill="#E2E2E2"/>
<path d="M10 201.452L81.7869 246.987L283 123.528L211.213 83.9873L10 201.452Z" fill="url(#paint6_linear)"/>
<ellipse cx="276.5" cy="495" rx="6.5" ry="7" fill="#330570"/>
<circle cx="276" cy="434" r="11" fill="#330570"/>
<defs>
<linearGradient id="paint0_linear" x1="-58.4494" y1="277.013" x2="77.1624" y2="277.013" gradientUnits="userSpaceOnUse">
<stop stop-color="#AFAEAE"/>
<stop offset="0.0842414" stop-color="#A7A6A6"/>
<stop offset="0.6063" stop-color="#7C7A78"/>
<stop offset="0.8681" stop-color="#6B6966"/>
</linearGradient>
<linearGradient id="paint1_linear" x1="10.1504" y1="310.505" x2="147.761" y2="310.505" gradientUnits="userSpaceOnUse">
<stop stop-color="#48443E"/>
<stop offset="0.284" stop-color="#2B2312"/>
<stop offset="0.4322" stop-color="#201600"/>
</linearGradient>
<linearGradient id="paint2_linear" x1="233.978" y1="126.527" x2="327.043" y2="126.527" gradientUnits="userSpaceOnUse">
<stop stop-color="#E2E2E2"/>
<stop offset="0.2649" stop-color="#F0F0F0"/>
<stop offset="0.6014" stop-color="#FBFBFB"/>
<stop offset="0.9745" stop-color="white"/>
</linearGradient>
<linearGradient id="paint3_linear" x1="287.12" y1="180.476" x2="338.136" y2="180.476" gradientUnits="userSpaceOnUse">
<stop stop-color="#E2E2E2"/>
<stop offset="0.0459915" stop-color="#E6E6E6"/>
<stop offset="0.2622" stop-color="#F4F4F4"/>
<stop offset="0.5264" stop-color="#FDFDFD"/>
<stop offset="0.9745" stop-color="white"/>
</linearGradient>
<linearGradient id="paint4_linear" x1="319.481" y1="141.972" x2="319.481" y2="171.313" gradientUnits="userSpaceOnUse">
<stop stop-color="#70B7BF"/>
<stop offset="0.3815" stop-color="#A2CACE"/>
<stop offset="0.7761" stop-color="#D0DBDD"/>
<stop offset="0.9745" stop-color="#E2E2E2"/>
</linearGradient>
<linearGradient id="paint5_linear" x1="85.999" y1="259.503" x2="515.694" y2="163.854" gradientUnits="userSpaceOnUse">
<stop stop-color="white"/>
<stop offset="0.1446" stop-color="#E5E2EF"/>
<stop offset="0.5447" stop-color="#A098C4"/>
<stop offset="0.8314" stop-color="#756AA9"/>
<stop offset="0.9745" stop-color="#64589F"/>
</linearGradient>
<linearGradient id="paint6_linear" x1="10.5193" y1="165.466" x2="307.109" y2="165.466" gradientUnits="userSpaceOnUse">
<stop stop-color="white"/>
<stop offset="0.3953" stop-color="#FDFDFE"/>
<stop offset="0.5377" stop-color="#F7F6FA"/>
<stop offset="0.6393" stop-color="#ECEBF3"/>
<stop offset="0.7214" stop-color="#DCDAEA"/>
<stop offset="0.7917" stop-color="#C8C4DD"/>
<stop offset="0.854" stop-color="#AFA8CD"/>
<stop offset="0.9103" stop-color="#9188BB"/>
<stop offset="0.9604" stop-color="#6F64A6"/>
<stop offset="0.9745" stop-color="#64589F"/>
</linearGradient>
</defs>
</svg>
