<svg width="62" height="31" viewBox="0 0 62 31" fill="none" xmlns="http://www.w3.org/2000/svg">
<path fill-rule="evenodd" clip-rule="evenodd" d="M37.7157 5.75889C37.275 5.82835 36.8343 5.94281 36.3806 6.06062C36.1341 6.12466 35.8837 6.18969 35.6274 6.24901V0H31.3401V12.8809C31.3559 17.4452 35.5325 20.83 40.1679 20.0642C44.2654 19.3903 46.9706 15.6685 46.3062 11.671C45.6575 7.81127 41.7499 5.11561 37.7157 5.75889ZM38.8548 16.3883C36.814 16.3883 35.2319 14.8567 35.2477 12.8962C35.2477 10.9664 36.8456 9.4501 38.8548 9.43478C40.8956 9.43478 42.5093 10.9664 42.5093 12.9116C42.5093 14.8414 40.8798 16.3883 38.8548 16.3883Z" fill="#452466"/>
<path fill-rule="evenodd" clip-rule="evenodd" d="M7.56214 5.65165C3.36974 5.63633 0 8.88337 0 12.9268C0 16.9244 3.3381 20.1714 7.4514 20.1714C11.6913 20.1867 15.0294 17.001 15.0452 12.9422C15.061 8.914 11.7071 5.66697 7.56214 5.65165ZM7.4514 16.4189C5.44221 16.373 3.84435 14.7954 3.89181 12.8656C3.93928 10.9051 5.55296 9.40412 7.57796 9.41944C9.58715 9.45007 11.2167 11.0276 11.185 12.9422C11.1376 14.918 9.47641 16.4496 7.4514 16.4189Z" fill="#452466"/>
<path fill-rule="evenodd" clip-rule="evenodd" d="M2.86341 24.2609C2.53118 24.2609 2.24642 24.3222 2.00911 24.46C1.77181 24.5979 1.55032 24.797 1.3763 25.0574V21.5193H0.126485V30.8469H1.21809L1.31301 30.0811C1.48704 30.3721 1.70852 30.5865 1.97747 30.7397C2.24642 30.8928 2.547 30.9694 2.89505 30.9694C3.59115 30.9694 4.12904 30.709 4.50873 30.2036C4.88842 29.6982 5.07827 29.0089 5.07827 28.1512V27.2782C5.07827 26.3592 4.88842 25.6394 4.50873 25.088C4.0974 24.5366 3.55951 24.2609 2.86341 24.2609ZM3.81263 28.1512C3.81263 28.7333 3.71771 29.1927 3.51205 29.5297C3.30638 29.8667 2.98997 30.0351 2.547 30.0351C2.26224 30.0351 2.02493 29.9585 1.81927 29.8207C1.62942 29.6675 1.47122 29.4684 1.36048 29.2081V26.0989C1.47122 25.8232 1.62942 25.6087 1.81927 25.4556C2.00911 25.2871 2.24642 25.2105 2.53118 25.2105C2.97415 25.2105 3.29056 25.3943 3.49623 25.7772C3.70189 26.1601 3.79681 26.6502 3.79681 27.2782V28.1512H3.81263Z" fill="#452466"/>
<path d="M12.4821 29.2233C12.3555 29.4837 12.1973 29.6828 11.9916 29.8206C11.786 29.9585 11.5329 30.0351 11.2164 30.0351C10.8842 30.0351 10.6469 29.8972 10.4887 29.6215C10.3305 29.3458 10.2514 28.871 10.2514 28.2124V24.3834H9.00159V28.1971C9.00159 29.1467 9.17562 29.8513 9.50784 30.2954C9.84007 30.7396 10.3147 30.9694 10.9159 30.9694C11.2797 30.9694 11.5961 30.8775 11.8651 30.709C12.134 30.5405 12.3713 30.2954 12.5454 29.9738L12.6245 30.8468H13.7477V24.3834H12.4821V29.2233Z" fill="#452466"/>
<path d="M19.2216 26.5889C19.364 26.7421 19.6962 26.9259 20.1866 27.1556C20.8827 27.4007 21.4048 27.6764 21.7687 28.0133C22.1009 28.3197 22.2749 28.7179 22.2749 29.1927C22.2749 29.7288 22.0693 30.1576 21.6421 30.4946C21.215 30.8315 20.6613 31 19.981 31C19.2374 31 18.6679 30.7856 18.2407 30.3874C17.8136 29.9738 17.6237 29.499 17.6396 28.9629L17.6554 28.9323H18.8261C18.8419 29.3458 18.9685 29.6522 19.19 29.836C19.4114 30.0198 19.6804 30.1117 20.0126 30.1117C20.329 30.1117 20.5822 30.0351 20.772 29.8666C20.946 29.6981 21.041 29.499 21.041 29.2386C21.041 28.9783 20.9618 28.7638 20.7878 28.5954C20.6138 28.4269 20.2974 28.2431 19.8228 28.0287C19.1267 27.7683 18.6204 27.4926 18.2882 27.2016C17.956 26.9106 17.7978 26.5277 17.7978 26.0682C17.7978 25.5627 17.9876 25.1492 18.3989 24.7969C18.8103 24.4447 19.3323 24.2762 19.9968 24.2762C20.6929 24.2762 21.2308 24.46 21.6421 24.8429C22.0535 25.2258 22.2433 25.6853 22.2275 26.252L22.2117 26.2826H21.0093C21.0093 25.9763 20.9144 25.7006 20.7404 25.4862C20.5663 25.2564 20.3132 25.1492 19.9968 25.1492C19.6804 25.1492 19.4431 25.2411 19.2691 25.4096C19.095 25.5781 19.0001 25.7772 19.0001 26.0069C19.0001 26.252 19.0634 26.4511 19.2216 26.5889Z" fill="#452466"/>
<path d="M27.4957 21.5193H26.2459V22.6834H27.4957V21.5193Z" fill="#452466"/>
<path d="M26.2459 24.3834H27.4957V30.8468H26.2459V24.3834Z" fill="#452466"/>
<path d="M34.6466 24.2609C34.2827 24.2609 33.9663 24.3528 33.6815 24.5519C33.3967 24.7357 33.1594 25.0114 32.9854 25.3483L32.9221 24.3987H31.7672V30.8468H33.0171V26.0529C33.1436 25.7925 33.3018 25.5781 33.4917 25.4249C33.6815 25.2717 33.9188 25.1951 34.1719 25.1951C34.5358 25.1951 34.8048 25.3177 34.9788 25.5627C35.1528 25.8078 35.2477 26.2366 35.2477 26.834V30.8468H36.4975V26.834C36.4975 25.9456 36.3393 25.3024 36.0071 24.8888C35.6749 24.46 35.2319 24.2609 34.6466 24.2609Z" fill="#452466"/>
<path fill-rule="evenodd" clip-rule="evenodd" d="M41.1489 25.0879C41.6235 24.5365 42.2089 24.2609 42.9366 24.2609C43.696 24.2609 44.2814 24.5059 44.6769 25.0114C45.0882 25.5168 45.2939 26.1907 45.2939 27.0331V27.8755H41.7026V28.1359C41.7026 28.6872 41.8292 29.1467 42.0823 29.5143C42.3355 29.8819 42.6993 30.0657 43.1581 30.0657C43.5062 30.0657 43.7909 30.0197 44.0441 29.9125C44.2814 29.8053 44.5187 29.6522 44.7402 29.4531L45.1357 30.2035C44.93 30.4333 44.6452 30.6171 44.2972 30.7702C43.9491 30.9081 43.5378 30.9847 43.079 30.9847C42.2722 30.9847 41.6394 30.7243 41.1647 30.1882C40.6901 29.6522 40.4528 28.9629 40.4528 28.1359V27.1863C40.4528 26.3285 40.6743 25.6393 41.1489 25.0879ZM41.7026 27.0025H44.0599V26.7574C44.0599 26.2979 43.965 25.915 43.7751 25.624C43.5853 25.333 43.3005 25.1798 42.9366 25.1798C42.5728 25.1798 42.288 25.3636 42.0665 25.7006C41.845 26.0375 41.7343 26.4817 41.7026 27.0025Z" fill="#452466"/>
<path d="M51.4322 27.1556C50.9418 26.9259 50.6095 26.7421 50.4672 26.5889C50.3248 26.4511 50.2457 26.252 50.2457 26.0069C50.2457 25.7772 50.3406 25.5781 50.5146 25.4096C50.6886 25.2411 50.9259 25.1492 51.2424 25.1492C51.5588 25.1492 51.8119 25.2564 51.9859 25.4862C52.1599 25.7006 52.2549 25.9763 52.2549 26.2826H53.4572L53.473 26.252C53.4888 25.6853 53.299 25.2258 52.8877 24.8429C52.4763 24.46 51.9384 24.2762 51.2424 24.2762C50.5779 24.2762 50.0558 24.4447 49.6445 24.7969C49.2332 25.1492 49.0433 25.5627 49.0433 26.0682C49.0433 26.5277 49.2015 26.9106 49.5338 27.2016C49.866 27.4926 50.3722 27.7683 51.0683 28.0287C51.5429 28.2431 51.8593 28.4269 52.0334 28.5954C52.2074 28.7638 52.2865 28.9783 52.2865 29.2386C52.2865 29.499 52.1916 29.6981 52.0175 29.8666C51.8277 30.0351 51.5746 30.1117 51.2582 30.1117C50.9259 30.1117 50.657 30.0198 50.4355 29.836C50.214 29.6522 50.0875 29.3458 50.0716 28.9323H48.9009L48.8851 28.9629C48.8693 29.499 49.0591 29.9738 49.4863 30.3874C49.9134 30.7856 50.483 31 51.2265 31C51.9068 31 52.4605 30.8315 52.8877 30.4946C53.3148 30.1576 53.5205 29.7288 53.5205 29.1927C53.5205 28.7179 53.3465 28.3197 53.0142 28.0133C52.6504 27.6764 52.1283 27.4007 51.4322 27.1556Z" fill="#452466"/>
<path d="M58.7252 26.5889C58.8676 26.7421 59.1998 26.9259 59.6902 27.1556C60.3863 27.4007 60.9084 27.6764 61.2723 28.0133C61.6045 28.3197 61.7785 28.7179 61.7785 29.1927C61.7785 29.7288 61.5728 30.1576 61.1457 30.4946C60.7185 30.8315 60.1648 31 59.4846 31C58.741 31 58.1715 30.7856 57.7443 30.3874C57.3172 29.9738 57.1273 29.499 57.1431 28.9629L57.159 28.9323H58.3297C58.3455 29.3458 58.4721 29.6522 58.6935 29.836C58.915 30.0198 59.184 30.1117 59.5162 30.1117C59.8326 30.1117 60.0857 30.0351 60.2756 29.8666C60.4496 29.6981 60.5445 29.499 60.5445 29.2386C60.5445 28.9783 60.4654 28.7638 60.2914 28.5954C60.1174 28.4269 59.801 28.2431 59.3264 28.0287C58.6303 27.7683 58.124 27.4926 57.7918 27.2016C57.4595 26.9106 57.3013 26.5277 57.3013 26.0682C57.3013 25.5627 57.4912 25.1492 57.9025 24.7969C58.3139 24.4447 58.8359 24.2762 59.5004 24.2762C60.1965 24.2762 60.7344 24.46 61.1457 24.8429C61.557 25.2258 61.7469 25.6853 61.7311 26.252L61.7152 26.2826H60.5129C60.5129 25.9763 60.418 25.7006 60.2439 25.4862C60.0699 25.2564 59.8168 25.1492 59.5004 25.1492C59.184 25.1492 58.9467 25.2411 58.7726 25.4096C58.5986 25.5781 58.5037 25.7772 58.5037 26.0069C58.5037 26.252 58.5828 26.4511 58.7252 26.5889Z" fill="#452466"/>
<path fill-rule="evenodd" clip-rule="evenodd" d="M15.4088 12.9422C15.393 8.89874 18.7628 5.6517 22.9552 5.6517C27.1159 5.66702 30.454 8.89874 30.454 12.9269C30.454 16.9551 27.1159 20.1715 22.9393 20.1715C18.7628 20.1715 15.4247 16.9704 15.4088 12.9422ZM19.2848 12.8963C19.269 14.8108 20.8985 16.4037 22.9077 16.419C24.9485 16.4343 26.578 14.8721 26.578 12.9116C26.5622 10.9511 24.9644 9.41949 22.9393 9.41949C20.9302 9.40417 19.3007 10.9664 19.2848 12.8963Z" fill="#452466"/>
<path fill-rule="evenodd" clip-rule="evenodd" d="M57.4279 6.26433C60.0857 7.38242 61.9525 9.92491 61.9525 13.0647C61.9525 14.5964 61.9525 16.1433 62 17.6749V20.1561H57.6019V19.4975C57.3805 19.6048 57.159 19.6813 56.9217 19.7579C56.8928 19.7672 56.8646 19.7765 56.8368 19.7857C56.7273 19.8219 56.6239 19.856 56.5103 19.8804C55.8617 20.0489 55.1814 20.1408 54.4695 20.1408C54.1215 20.1408 53.7734 20.1255 53.4412 20.0796C51.9382 19.9264 50.5619 19.2984 49.4703 18.3488C49.3121 18.2263 49.1697 18.0884 49.0273 17.9506C48.8849 17.8281 48.7583 17.6902 48.6476 17.5524C48.608 17.4988 48.5685 17.449 48.5289 17.3992C48.4894 17.3494 48.4498 17.2997 48.4103 17.2461C48.3989 17.2296 48.3855 17.2131 48.3716 17.1959C48.3466 17.1652 48.3198 17.1322 48.2995 17.0929C48.0622 16.7866 47.8566 16.4496 47.6826 16.0973C47.5085 15.7757 47.3661 15.4387 47.2554 15.0865L47.2079 14.9486C47.0497 14.4585 46.9548 13.9378 46.9074 13.4017C46.8124 12.1151 47.0814 10.8592 47.6509 9.74111L47.9357 9.23568C47.9831 9.14378 48.0306 9.05188 48.0939 8.9753C48.1413 8.88341 48.2046 8.79151 48.2679 8.71493C48.3312 8.62303 48.3945 8.53113 48.4578 8.45455C48.521 8.36266 48.5843 8.28607 48.6634 8.20949C48.703 8.17121 48.7386 8.13292 48.7742 8.09463C48.8098 8.05634 48.8454 8.01804 48.8849 7.97975C48.9798 7.87764 49.0888 7.77554 49.1978 7.67343C49.2523 7.62237 49.3068 7.57132 49.3595 7.52026C49.5335 7.3671 49.7234 7.21394 49.9132 7.07609C50.7834 6.44813 51.7959 5.98864 52.9033 5.78953C52.9574 5.76856 53.0042 5.76195 53.0537 5.75494C53.0765 5.75172 53.0998 5.74841 53.1248 5.74358C53.1564 5.72827 53.2039 5.72827 53.2355 5.72827C53.2471 5.72603 53.2583 5.7238 53.2692 5.72161C53.3334 5.70881 53.3894 5.69763 53.457 5.69763C53.7734 5.65169 54.1056 5.63637 54.4379 5.63637C54.7701 5.63637 55.1023 5.667 55.4187 5.71295L55.7509 5.7589C55.8087 5.77287 55.8664 5.78365 55.9226 5.79415C55.9896 5.80668 56.0546 5.81882 56.1148 5.83548C56.1306 5.83548 56.1465 5.83931 56.1623 5.84314C56.1781 5.84697 56.1939 5.8508 56.2097 5.8508C56.2335 5.85845 56.2612 5.86611 56.2888 5.87377C56.3165 5.88143 56.3442 5.88909 56.3679 5.89675C56.3917 5.90441 56.4194 5.91206 56.4471 5.91972C56.4747 5.92738 56.5024 5.93504 56.5262 5.94269C56.6844 5.98864 56.8426 6.03459 57.0008 6.09586C57.1431 6.14181 57.2855 6.20307 57.4279 6.26433ZM50.7675 12.9269C50.7675 14.8874 52.3812 16.4037 54.422 16.3883C56.447 16.373 58.0449 14.8261 57.9974 12.8963V12.7125C57.9974 12.6359 57.9974 12.5593 57.9816 12.4827C57.9816 12.4597 57.9777 12.4406 57.9737 12.4215C57.9698 12.4023 57.9658 12.3832 57.9658 12.3602C57.9658 12.3142 57.9658 12.2836 57.95 12.253C57.6336 10.6295 56.1465 9.43479 54.3429 9.45011C52.7134 9.46542 51.3529 10.4916 50.9257 11.9313C50.9166 11.9402 50.9127 11.9439 50.9111 11.9485C50.9099 11.9518 50.9099 11.9555 50.9099 11.962C50.815 12.2683 50.7675 12.5899 50.7675 12.9269Z" fill="#452466"/>
</svg>
