<svg width="10" height="10" viewBox="0 0 10 10" fill="none" xmlns="http://www.w3.org/2000/svg">
<path d="M9.52735 0.470823L7.55862 0.0157508C7.27152 -0.0506546 6.9766 0.097781 6.85941 0.369262L5.95122 2.48838C5.8438 2.73642 5.91607 3.02938 6.12505 3.20126L7.17777 4.06257C6.51372 5.41412 5.41412 6.51567 4.06062 7.17972L3.1993 6.127C3.02743 5.91802 2.73447 5.84576 2.48642 5.95318L0.369262 6.86137C0.097781 6.97855 -0.0506546 7.27152 0.0157508 7.55862L0.46887 9.5254C0.533322 9.80469 0.779413 10 1.06457 10C5.99028 10 10 6.01177 10 1.06457C10 0.779413 9.80469 0.533322 9.52735 0.470823ZM1.07628 9.37501L0.627071 7.42972L2.7247 6.53129L3.8868 7.95315C5.91021 7.00394 7.0059 5.90435 7.9512 3.88875L6.52934 2.72665L7.42777 0.629024L9.37305 1.07824C9.36915 5.65826 5.6563 9.36915 1.07628 9.37501Z" fill="white"/>
</svg>
