<svg width="335" height="282" viewBox="0 0 335 282" fill="none" xmlns="http://www.w3.org/2000/svg">
<path d="M164.356 220.28C164.356 220.28 149.741 229.919 152.301 243.289C153.261 248.575 160.302 251.581 165.317 251.996C166.703 252.099 166.597 250.337 168.197 249.508C168.197 249.508 179.079 244.429 180.999 227.431C180.999 227.431 181.213 217.896 174.598 217.067C172.144 216.756 168.837 217.481 164.356 220.28Z" fill="black"/>
<path d="M80.9836 270.043L77 275.516L80.0401 276.253L82.0319 279.832C83.185 281.937 85.9106 282.674 88.0072 281.305L294 151.526L282.259 147L80.9836 270.043Z" fill="black"/>
<path d="M10 115V116.987V226.772L81 271V160.273L10 115Z" fill="url(#paint0_linear)"/>
<path d="M10 226.968L81 182V271L10 226.968Z" fill="url(#paint1_linear)"/>
<path d="M10 114.51L0 94V204.542L10 224V114.51Z" fill="#E2E2E2"/>
<path d="M234 11H261.156C261.156 11 307.184 25.7804 327 50.0998L287.053 74L234 37.7304V11Z" fill="url(#paint2_linear)"/>
<path d="M287 73.9319V140L221 99.7528L233.737 11L247 63.4781L260.474 56.4741L271 64.419L287 73.9319Z" fill="#AFAEAE"/>
<path d="M261 123.628L286.59 139.77L319.92 118L329 123.628L327.143 141.681L290.305 166L266.469 150.814L261 123.628Z" fill="black"/>
<path d="M326.617 50L334 83.8277V136.507L326.617 143L324.642 121.111L320.586 118.598L287 140.068V73.8784L326.617 50Z" fill="url(#paint3_linear)"/>
<path d="M131.356 242.318C131.356 242.318 116.741 251.971 119.301 265.36C119.834 267.955 121.328 270.135 123.355 271.588C125.489 273.041 133.17 276.466 135.837 275.947C137.224 275.636 133.597 272.522 135.197 271.588C135.197 271.588 146.079 266.502 147.999 249.48C147.999 249.48 148.213 239.931 141.598 239.101C139.251 238.685 135.944 239.516 131.356 242.318Z" fill="black"/>
<path d="M150.833 263.459C156.568 253.889 157.03 243.629 151.866 240.543C146.702 237.457 137.867 242.714 132.132 252.284C126.397 261.853 125.934 272.113 131.099 275.199C136.263 278.285 145.098 273.029 150.833 263.459Z" fill="#383838"/>
<path d="M183.565 240.197C189.3 230.627 189.763 220.368 184.599 217.282C179.435 214.196 170.599 219.452 164.864 229.022C159.13 238.592 158.667 248.852 163.831 251.938C168.995 255.024 177.83 249.767 183.565 240.197Z" fill="#383838"/>
<path d="M291.899 138.9C291.899 138.9 277.963 149.504 281.608 162.352C283.001 167.451 290.291 169.898 295.329 170C296.723 170 296.509 168.267 298.009 167.349C298.009 167.349 308.515 161.537 309.158 144.814C309.158 144.814 315.161 141.857 312.16 139.002C311.195 138.084 303.584 135.127 301.868 135.025C299.51 134.821 296.294 135.841 291.899 138.9Z" fill="black"/>
<path d="M310.951 159.409C316.151 150.732 316.583 141.436 311.915 138.647C307.248 135.858 299.248 140.631 294.048 149.309C288.848 157.986 288.417 167.281 293.084 170.071C297.752 172.86 305.751 168.086 310.951 159.409Z" fill="#383838"/>
<path d="M77 276L81 271L77 276Z" fill="black"/>
<path d="M4.97776 229.782L9.18366 226.56L80.8558 270.989L76.747 276.404L4.97294 231.14" fill="black"/>
<path d="M145.618 260.342C148.174 256.078 148.394 251.515 146.11 250.15C143.825 248.785 139.902 251.135 137.347 255.399C134.791 259.664 134.571 264.227 136.856 265.592C139.14 266.957 143.063 264.607 145.618 260.342Z" fill="black"/>
<path d="M178.351 237.081C180.906 232.817 181.126 228.254 178.842 226.889C176.558 225.524 172.635 227.874 170.079 232.138C167.524 236.403 167.304 240.966 169.588 242.331C171.872 243.696 175.795 241.346 178.351 237.081Z" fill="black"/>
<path d="M306.636 156.83C309.191 152.566 309.411 148.003 307.127 146.638C304.843 145.273 300.92 147.623 298.364 151.887C295.809 156.152 295.589 160.715 297.873 162.08C300.157 163.445 304.08 161.095 306.636 156.83Z" fill="black"/>
<path d="M305 70.2658L327.486 54L334 83.9801L305 86V70.2658Z" fill="url(#paint4_linear)"/>
<path d="M307.027 85.8937L307.133 73.0299L329 59.4219L327.827 54L305 70.2658V86L307.027 85.8937Z" fill="black"/>
<path d="M301 120.959V125.342L302.985 126L308 123.151V120.959L306.015 118L301 120.959Z" fill="black"/>
<path d="M312 153L334.792 136.609L335 127.993C335 127.993 334.063 125.471 331.357 126.101L320.43 133.666L313.249 152.79" fill="#201600"/>
<path d="M79.9141 174.479L96.3639 164.434L114.7 173.014L98.5643 185.569L79.9141 174.479Z" fill="#E2C188"/>
<path d="M114.7 173.014L98.5645 185.569V200.531L113.652 186.72L114.7 173.014Z" fill="#CEA15F"/>
<path d="M79.9141 174.479V188.708L98.5642 200.531V185.151L79.9141 174.479Z" fill="#E2C188"/>
<path d="M101.917 185.674L118.367 175.629L136.703 184.209L120.567 196.764L101.917 185.674Z" fill="#E2C188"/>
<path d="M136.703 184.209L120.567 196.764V211.726L135.655 197.915L136.703 184.209Z" fill="#CEA15F"/>
<path d="M101.917 185.674V199.903L120.567 211.726V196.346L101.917 185.674Z" fill="#E2C188"/>
<path d="M79.9141 159.517L96.3639 149.472L114.7 158.157L98.5643 170.712L79.9141 159.517Z" fill="#E2C188"/>
<path d="M114.7 158.156L98.5645 170.712V185.569L113.652 171.863L114.7 158.156Z" fill="#CEA15F"/>
<path d="M79.9141 159.517V173.851L98.5642 185.569V170.189L79.9141 159.517Z" fill="#E2C188"/>
<path d="M101.917 171.863L118.367 161.819L136.703 170.503L120.567 183.058L101.917 171.863Z" fill="#E2C188"/>
<path d="M136.703 170.503L120.567 183.058V197.915L135.655 184.209L136.703 170.503Z" fill="#CEA15F"/>
<path d="M101.917 171.863V186.197L120.567 197.915V182.535L101.917 171.863Z" fill="#E2C188"/>
<path d="M63.7783 188.29L80.2282 178.141L98.5641 186.825L82.4285 199.38L63.7783 188.29Z" fill="#E2C188"/>
<path d="M98.5643 186.825L82.4287 199.38V214.342L97.5165 200.531L98.5643 186.825Z" fill="#CEA15F"/>
<path d="M63.7783 188.289V202.519L82.4285 214.342V198.961L63.7783 188.289Z" fill="#E2C188"/>
<path d="M85.7812 199.485L102.231 189.336L120.567 198.02L104.431 210.575L85.7812 199.485Z" fill="#E2C188"/>
<path d="M120.567 198.02L104.432 210.575V225.537L119.519 211.726L120.567 198.02Z" fill="#CEA15F"/>
<path d="M85.7812 199.485V213.714L104.431 225.537V210.157L85.7812 199.485Z" fill="#E2C188"/>
<path d="M63.7783 173.328L80.2282 163.283L98.5641 171.968L82.4285 184.523L63.7783 173.328Z" fill="#E2C188"/>
<path d="M98.5643 171.968L82.4287 184.523V199.38L97.5165 185.674L98.5643 171.968Z" fill="#CEA15F"/>
<path d="M63.7783 173.328V187.662L82.4285 199.38V184L63.7783 173.328Z" fill="#E2C188"/>
<path d="M85.7812 185.674L102.231 175.629L120.567 184.314L104.431 196.869L85.7812 185.674Z" fill="#E2C188"/>
<path d="M120.567 184.313L104.432 196.869V211.726L119.519 198.02L120.567 184.313Z" fill="#CEA15F"/>
<path d="M85.7812 185.674V200.008L104.431 211.726V196.346L85.7812 185.674Z" fill="#E2C188"/>
<path d="M47.6426 199.38L64.0925 189.336L82.4283 198.02L66.2928 210.575L47.6426 199.38Z" fill="#E2C188"/>
<path d="M82.4285 198.02L66.293 210.575V225.537L81.3808 211.726L82.4285 198.02Z" fill="#CEA15F"/>
<path d="M47.6426 199.38V213.714L66.2928 225.537V210.052L47.6426 199.38Z" fill="#E2C188"/>
<path d="M69.6455 210.575L86.0954 200.531L104.431 209.215L88.2957 221.771L69.6455 210.575Z" fill="#E2C188"/>
<path d="M104.431 209.215L88.2959 221.77V236.732L103.384 222.921L104.431 209.215Z" fill="#CEA15F"/>
<path d="M69.6455 210.575V224.909L88.2957 236.732V221.247L69.6455 210.575Z" fill="#E2C188"/>
<path d="M47.6426 184.523L64.0925 174.479L82.4283 183.058L66.2928 195.718L47.6426 184.523Z" fill="#E2C188"/>
<path d="M82.4285 183.058L66.293 195.718V210.575L81.3808 196.869L82.4285 183.058Z" fill="#CEA15F"/>
<path d="M47.6426 184.523V198.857L66.2928 210.575V195.195L47.6426 184.523Z" fill="#E2C188"/>
<path d="M69.6455 196.869L86.0954 186.825L104.431 195.509L88.2957 208.064L69.6455 196.869Z" fill="#E2C188"/>
<path d="M104.431 195.509L88.2959 208.064V222.921L103.384 209.215L104.431 195.509Z" fill="#CEA15F"/>
<path d="M69.6455 196.869V211.203L88.2957 222.921V207.541L69.6455 196.869Z" fill="#E2C188"/>
<path d="M31.4023 213.191L47.957 203.147L66.2929 211.831L50.1573 224.386L31.4023 213.191Z" fill="#E2C188"/>
<path d="M66.2928 211.831L50.1572 224.386V239.243L65.245 225.537L66.2928 211.831Z" fill="#CEA15F"/>
<path d="M31.4023 213.191V227.525L50.1573 239.243V223.863L31.4023 213.191Z" fill="#E2C188"/>
<path d="M53.5098 224.386L69.9597 214.342L88.2955 223.026L72.16 235.581L53.5098 224.386Z" fill="#E2C188"/>
<path d="M88.2957 223.026L72.1602 235.581V250.438L87.2479 236.732L88.2957 223.026Z" fill="#CEA15F"/>
<path d="M53.5098 224.386V238.72L72.16 250.439V235.058L53.5098 224.386Z" fill="#E2C188"/>
<path d="M31.4023 198.334L47.957 188.289L66.2929 196.869L50.1573 209.529L31.4023 198.334Z" fill="#E2C188"/>
<path d="M66.2928 196.869L50.1572 209.529V224.386L65.245 210.68L66.2928 196.869Z" fill="#CEA15F"/>
<path d="M31.4023 198.334V212.563L50.1573 224.386V209.006L31.4023 198.334Z" fill="#E2C188"/>
<path d="M53.5098 210.68L69.9597 200.635L88.2955 209.215L72.16 221.875L53.5098 210.68Z" fill="#E2C188"/>
<path d="M88.2957 209.215L72.1602 221.875V236.732L87.2479 223.026L88.2957 209.215Z" fill="#CEA15F"/>
<path d="M53.5098 210.68V225.014L72.16 236.732V221.352L53.5098 210.68Z" fill="#E2C188"/>
<path d="M78.3428 141.102L94.8974 131.058L113.233 139.637L97.0978 152.298L78.3428 141.102Z" fill="#E2C188"/>
<path d="M113.233 139.637L97.0977 152.297V167.155L112.185 153.448L113.233 139.637Z" fill="#CEA15F"/>
<path d="M78.3428 141.102V155.332L97.0977 167.155V151.774L78.3428 141.102Z" fill="#E2C188"/>
<path d="M100.346 152.298L116.9 142.253L135.236 150.833L119.101 163.493L100.346 152.298Z" fill="#E2C188"/>
<path d="M135.236 150.833L119.101 163.493V178.35L134.188 164.644L135.236 150.833Z" fill="#CEA15F"/>
<path d="M100.346 152.298V166.527L119.101 178.35V162.97L100.346 152.298Z" fill="#E2C188"/>
<path d="M78.3428 126.14L94.8974 116.096L113.233 124.78L97.0978 137.336L78.3428 126.14Z" fill="#E2C188"/>
<path d="M113.233 124.78L97.0977 137.336V152.297L112.185 138.487L113.233 124.78Z" fill="#CEA15F"/>
<path d="M78.3428 126.14V140.474L97.0977 152.297V136.812L78.3428 126.14Z" fill="#E2C188"/>
<path d="M100.346 138.591L116.9 128.442L135.236 137.127L119.101 149.682L100.346 138.591Z" fill="#E2C188"/>
<path d="M135.236 137.126L119.101 149.682V164.644L134.188 150.833L135.236 137.126Z" fill="#CEA15F"/>
<path d="M100.346 138.591V152.821L119.101 164.644V149.263L100.346 138.591Z" fill="#E2C188"/>
<path d="M62.207 154.913L78.7617 144.869L97.0975 153.449L80.962 166.004L62.207 154.913Z" fill="#E2C188"/>
<path d="M97.0975 153.448L80.9619 166.004V180.966L96.0497 167.259L97.0975 153.448Z" fill="#CEA15F"/>
<path d="M62.207 154.913V169.143L80.962 180.966V165.585L62.207 154.913Z" fill="#E2C188"/>
<path d="M84.21 166.109L100.765 156.064L119.1 164.644L102.965 177.304L84.21 166.109Z" fill="#E2C188"/>
<path d="M119.1 164.644L102.965 177.304V192.161L118.053 178.455L119.1 164.644Z" fill="#CEA15F"/>
<path d="M84.21 166.109V180.338L102.965 192.161V176.781L84.21 166.109Z" fill="#E2C188"/>
<path d="M62.207 139.952L78.7617 129.907L97.0975 138.591L80.962 151.147L62.207 139.952Z" fill="#E2C188"/>
<path d="M97.0975 138.591L80.9619 151.147V166.004L96.0497 152.298L97.0975 138.591Z" fill="#CEA15F"/>
<path d="M62.207 139.951V154.285L80.962 166.004V150.624L62.207 139.951Z" fill="#E2C188"/>
<path d="M84.21 152.298L100.765 142.253L119.1 150.937L102.965 163.493L84.21 152.298Z" fill="#E2C188"/>
<path d="M119.1 150.938L102.965 163.493V178.455L118.053 164.644L119.1 150.938Z" fill="#CEA15F"/>
<path d="M84.21 152.298V166.632L102.965 178.455V162.97L84.21 152.298Z" fill="#E2C188"/>
<path d="M46.0713 166.109L62.6259 155.96L80.9618 164.644L64.8262 177.199L46.0713 166.109Z" fill="#E2C188"/>
<path d="M80.9617 164.644L64.8262 177.199V192.161L79.914 178.35L80.9617 164.644Z" fill="#CEA15F"/>
<path d="M46.0713 166.109V180.338L64.8263 192.161V176.781L46.0713 166.109Z" fill="#E2C188"/>
<path d="M68.0742 177.304L84.6289 167.155L102.965 175.839L86.8292 188.394L68.0742 177.304Z" fill="#E2C188"/>
<path d="M102.965 175.839L86.8291 188.394V203.356L101.917 189.545L102.965 175.839Z" fill="#CEA15F"/>
<path d="M68.0742 177.304V191.533L86.8292 203.356V187.976L68.0742 177.304Z" fill="#E2C188"/>
<path d="M46.0713 151.147L62.6259 141.102L80.9618 149.787L64.8262 162.342L46.0713 151.147Z" fill="#E2C188"/>
<path d="M80.9617 149.786L64.8262 162.342V177.199L79.914 163.493L80.9617 149.786Z" fill="#CEA15F"/>
<path d="M46.0713 151.147V165.481L64.8263 177.199V161.819L46.0713 151.147Z" fill="#E2C188"/>
<path d="M68.0742 163.493L84.6289 153.448L102.965 162.133L86.8292 174.688L68.0742 163.493Z" fill="#E2C188"/>
<path d="M102.965 162.133L86.8291 174.688V189.545L101.917 175.839L102.965 162.133Z" fill="#CEA15F"/>
<path d="M68.0742 163.493V177.827L86.8292 189.545V174.165L68.0742 163.493Z" fill="#E2C188"/>
<path d="M29.9355 179.815L46.4902 169.77L64.8261 178.455L48.6905 191.01L29.9355 179.815Z" fill="#E2C188"/>
<path d="M64.826 178.454L48.6904 191.01V205.972L63.7782 192.161L64.826 178.454Z" fill="#CEA15F"/>
<path d="M29.9355 179.815V194.149L48.6905 205.972V190.487L29.9355 179.815Z" fill="#E2C188"/>
<path d="M51.9385 191.115L68.4931 180.966L86.829 189.65L70.6934 202.205L51.9385 191.115Z" fill="#E2C188"/>
<path d="M86.8289 189.65L70.6934 202.205V217.167L85.7812 203.356L86.8289 189.65Z" fill="#CEA15F"/>
<path d="M51.9385 191.115V205.344L70.6934 217.167V201.682L51.9385 191.115Z" fill="#E2C188"/>
<path d="M29.9355 164.958L46.4902 154.913L64.8261 163.597L48.6905 176.153L29.9355 164.958Z" fill="#E2C188"/>
<path d="M64.826 163.597L48.6904 176.153V191.01L63.7782 177.304L64.826 163.597Z" fill="#CEA15F"/>
<path d="M29.9355 164.957V179.291L48.6905 191.01V175.629L29.9355 164.957Z" fill="#E2C188"/>
<path d="M51.9385 177.304L68.4931 167.259L86.829 175.943L70.6934 188.499L51.9385 177.304Z" fill="#E2C188"/>
<path d="M86.8289 175.943L70.6934 188.499V203.356L85.7812 189.65L86.8289 175.943Z" fill="#CEA15F"/>
<path d="M51.9385 177.304V191.638L70.6934 203.356V187.976L51.9385 177.304Z" fill="#E2C188"/>
<path d="M81 160.5V271L283 147.77V38L81 160.5Z" fill="url(#paint5_linear)"/>
<path d="M128 161H81V271H128V161Z" fill="#E2E2E2"/>
<path d="M10 117.465L81.7869 163L283 39.5406L211.213 0L10 117.465Z" fill="url(#paint6_linear)"/>
<defs>
<linearGradient id="paint0_linear" x1="-58.4494" y1="193.026" x2="77.1624" y2="193.026" gradientUnits="userSpaceOnUse">
<stop stop-color="#AFAEAE"/>
<stop offset="0.0842414" stop-color="#A7A6A6"/>
<stop offset="0.6063" stop-color="#7C7A78"/>
<stop offset="0.8681" stop-color="#6B6966"/>
</linearGradient>
<linearGradient id="paint1_linear" x1="10.1504" y1="226.517" x2="147.761" y2="226.517" gradientUnits="userSpaceOnUse">
<stop stop-color="#48443E"/>
<stop offset="0.284" stop-color="#2B2312"/>
<stop offset="0.4322" stop-color="#201600"/>
</linearGradient>
<linearGradient id="paint2_linear" x1="233.978" y1="42.5398" x2="327.043" y2="42.5398" gradientUnits="userSpaceOnUse">
<stop stop-color="#E2E2E2"/>
<stop offset="0.2649" stop-color="#F0F0F0"/>
<stop offset="0.6014" stop-color="#FBFBFB"/>
<stop offset="0.9745" stop-color="white"/>
</linearGradient>
<linearGradient id="paint3_linear" x1="287.12" y1="96.4889" x2="338.136" y2="96.4889" gradientUnits="userSpaceOnUse">
<stop stop-color="#E2E2E2"/>
<stop offset="0.0459915" stop-color="#E6E6E6"/>
<stop offset="0.2622" stop-color="#F4F4F4"/>
<stop offset="0.5264" stop-color="#FDFDFD"/>
<stop offset="0.9745" stop-color="white"/>
</linearGradient>
<linearGradient id="paint4_linear" x1="319.481" y1="57.9843" x2="319.481" y2="87.3259" gradientUnits="userSpaceOnUse">
<stop stop-color="#70B7BF"/>
<stop offset="0.3815" stop-color="#A2CACE"/>
<stop offset="0.7761" stop-color="#D0DBDD"/>
<stop offset="0.9745" stop-color="#E2E2E2"/>
</linearGradient>
<linearGradient id="paint5_linear" x1="85.999" y1="175.516" x2="515.694" y2="79.8664" gradientUnits="userSpaceOnUse">
<stop stop-color="white"/>
<stop offset="0.1446" stop-color="#E5E2EF"/>
<stop offset="0.5447" stop-color="#A098C4"/>
<stop offset="0.8314" stop-color="#756AA9"/>
<stop offset="0.9745" stop-color="#64589F"/>
</linearGradient>
<linearGradient id="paint6_linear" x1="10.5193" y1="81.4782" x2="307.109" y2="81.4782" gradientUnits="userSpaceOnUse">
<stop stop-color="white"/>
<stop offset="0.3953" stop-color="#FDFDFE"/>
<stop offset="0.5377" stop-color="#F7F6FA"/>
<stop offset="0.6393" stop-color="#ECEBF3"/>
<stop offset="0.7214" stop-color="#DCDAEA"/>
<stop offset="0.7917" stop-color="#C8C4DD"/>
<stop offset="0.854" stop-color="#AFA8CD"/>
<stop offset="0.9103" stop-color="#9188BB"/>
<stop offset="0.9604" stop-color="#6F64A6"/>
<stop offset="0.9745" stop-color="#64589F"/>
</linearGradient>
</defs>
</svg>
